<svg id="Warstwa_1" xmlns="http://www.w3.org/2000/svg" viewBox="0 0 1306.3 116.9"><style>.st0{fill:#020304;} .st1{font-family:&apos;CenturyGothic-Bold&apos;;} .st2{font-size:81.2293px;} .st3{fill:#A19C9C;} .st4{fill:#585757;} .st5{fill:#69B53C;}</style><text id="XMLID_2_" transform="translate(201.966 90.575)" class="st0 st1 st2">Wrocław Biofilm Symposium</text><g id="XMLID_6_"><path id="XMLID_30_" class="st3" d="M156.4 12.1c9.7 0 17.5 7.9 17.5 17.7 0 9.7-7.9 17.7-17.5 17.7s-17.5-7.9-17.5-17.7c0-9.8 7.9-17.7 17.5-17.7m0-5c-12.4 0-22.5 10.1-22.5 22.7 0 12.5 10.1 22.7 22.5 22.7S179 42.3 179 29.8 168.9 7.1 156.4 7.1z"/></g><circle id="XMLID_9_" class="st4" cx="35.2" cy="83.1" r="28.1"/><circle id="XMLID_8_" class="st4" cx="98.3" cy="83.1" r="28.1"/><circle id="XMLID_7_" class="st4" cx="161.6" cy="83.1" r="28.1"/><g id="XMLID_1_"><path id="XMLID_27_" class="st3" d="M98.3 12.1c9.7 0 17.5 7.9 17.5 17.7 0 9.7-7.9 17.7-17.5 17.7s-17.5-7.9-17.5-17.7c0-9.8 7.9-17.7 17.5-17.7m0-5c-12.4 0-22.5 10.1-22.5 22.7 0 12.5 10.1 22.7 22.5 22.7s22.5-10.1 22.5-22.7c0-12.5-10-22.7-22.5-22.7z"/></g><g id="XMLID_4_"><ellipse id="XMLID_41_" class="st5" cx="42.3" cy="29.8" rx="22.5" ry="22.7"/></g></svg>